<svg width="354" height="354" viewBox="0 0 354 354" fill="none" xmlns="http://www.w3.org/2000/svg">
<rect width="354" height="354" rx="177" fill="#E7E2E2"/>
<path d="M140.437 239.3H134.871L125.902 226.889C123.71 228.876 121.373 230.719 118.923 232.418C116.471 234.146 113.905 235.644 111.193 236.881C108.482 238.149 105.713 239.156 102.887 239.877C100.031 240.625 97.1468 241 94.2052 241C87.8603 241 81.8605 239.791 76.2653 237.401C70.6409 235.011 65.7674 231.699 61.5561 227.437C57.374 223.204 54.0569 218.164 51.6342 212.347C49.2114 206.53 48 200.195 48 193.312C48 186.516 49.2114 180.181 51.6342 174.335C54.0569 168.489 57.374 163.421 61.5561 159.159C65.7674 154.868 70.6409 151.529 76.2653 149.11C81.8605 146.691 87.8603 145.481 94.2052 145.481C96.2525 145.481 98.3303 145.653 100.521 145.999C102.684 146.316 104.789 146.892 106.838 147.641C108.914 148.389 110.846 149.397 112.635 150.636C114.451 151.874 115.952 153.401 117.192 155.186V113H140.438V239.302L140.437 239.3ZM117.191 193.312C117.191 190.174 116.585 187.122 115.373 184.156C114.162 181.219 112.518 178.597 110.442 176.322C108.365 174.048 105.913 172.204 103.116 170.851C100.347 169.47 97.3764 168.778 94.2039 168.778C91.0607 168.778 88.0899 169.325 85.2917 170.449C82.5226 171.572 80.0998 173.213 78.0234 175.316C75.9761 177.418 74.36 179.98 73.1778 183.032C71.9956 186.057 71.3893 189.511 71.3893 193.312C71.3893 196.652 71.9956 199.791 73.1778 202.758C74.36 205.753 75.9761 208.373 78.0234 210.619C80.0998 212.864 82.5226 214.65 85.2917 215.917C88.0887 217.213 91.0607 217.875 94.2039 217.875C97.3764 217.875 100.347 217.184 103.116 215.802C105.914 214.421 108.365 212.606 110.442 210.331C112.518 208.056 114.162 205.436 115.373 202.47C116.585 199.533 117.191 196.481 117.191 193.312ZM229.723 193.312C229.723 200.079 228.512 206.357 226.089 212.174C223.666 217.991 220.378 223.03 216.196 227.264C212.043 231.526 207.139 234.866 201.544 237.313C195.949 239.761 189.921 240.999 183.489 240.999C177.144 240.999 171.144 239.76 165.549 237.313C159.925 234.865 155.051 231.526 150.84 227.264C146.658 223.031 143.341 217.992 140.918 212.174C138.495 206.357 137.284 200.079 137.284 193.312C137.284 186.458 138.495 180.095 140.918 174.249C143.341 168.403 146.658 163.364 150.84 159.102C155.051 154.868 159.925 151.529 165.549 149.11C171.144 146.691 177.144 145.481 183.489 145.481C189.92 145.481 195.949 146.632 201.544 148.908C207.139 151.183 212.042 154.409 216.196 158.613C220.378 162.789 223.666 167.828 226.089 173.703C228.512 179.577 229.723 186.115 229.723 193.313V193.312ZM206.477 193.312C206.477 189.598 205.871 186.257 204.66 183.234C203.448 180.238 201.804 177.647 199.728 175.488C197.651 173.299 195.199 171.658 192.402 170.507C189.633 169.354 186.663 168.779 183.49 168.779C180.347 168.779 177.376 169.356 174.578 170.507C171.809 171.658 169.386 173.299 167.31 175.488C165.262 177.647 163.646 180.24 162.464 183.234C161.282 186.258 160.675 189.598 160.675 193.312C160.675 196.796 161.282 200.051 162.464 203.017C163.646 206.012 165.262 208.604 167.31 210.792C169.386 212.981 171.809 214.708 174.578 215.976C177.375 217.243 180.347 217.877 183.49 217.877C186.663 217.877 189.633 217.271 192.402 216.091C195.201 214.911 197.651 213.269 199.728 211.11C201.804 208.978 203.448 206.387 204.66 203.364C205.871 200.312 206.477 196.971 206.477 193.315V193.312ZM262.74 217.184C263.634 217.473 264.529 217.674 265.451 217.731C266.345 217.817 267.239 217.875 268.132 217.875C270.383 217.875 272.575 217.559 274.651 216.953C276.728 216.32 278.689 215.427 280.506 214.276C282.352 213.124 283.996 211.713 285.409 210.071C286.851 208.401 288.033 206.558 288.928 204.542L305.829 221.503C303.694 224.527 301.214 227.263 298.445 229.682C295.647 232.1 292.619 234.145 289.388 235.844C286.157 237.515 282.754 238.81 279.178 239.674C275.602 240.538 271.91 240.999 268.131 240.999C261.786 240.999 255.786 239.818 250.191 237.456C244.567 235.096 239.664 231.784 235.482 227.579C231.271 223.345 227.983 218.335 225.56 212.518C223.137 206.701 221.926 200.308 221.926 193.311C221.926 186.169 223.137 179.661 225.56 173.758C227.983 167.855 231.271 162.815 235.482 158.64C239.664 154.493 244.567 151.24 250.191 148.935C255.786 146.631 261.785 145.48 268.131 145.48C271.91 145.48 275.601 145.941 279.206 146.834C282.811 147.727 286.244 149.022 289.474 150.722C292.705 152.392 295.733 154.466 298.559 156.912C301.385 159.361 303.866 162.096 306 165.148L262.738 217.184H262.74ZM274.565 169.699C273.498 169.296 272.43 169.066 271.392 168.95C270.354 168.835 269.259 168.778 268.134 168.778C264.99 168.778 262.02 169.354 259.221 170.506C256.452 171.657 254.03 173.298 251.953 175.43C249.906 177.56 248.29 180.152 247.108 183.146C245.925 186.171 245.319 189.539 245.319 193.311C245.319 194.175 245.377 195.126 245.464 196.191C245.55 197.256 245.665 198.35 245.868 199.444C246.07 200.539 246.301 201.575 246.589 202.612C246.877 203.62 247.252 204.513 247.685 205.289L274.566 169.698L274.565 169.699Z" fill="#2AB036"/>
</svg>
